<svg width="23" height="20" viewBox="0 0 23 20" fill="none" xmlns="http://www.w3.org/2000/svg">
<path d="M4.47656 17.8809H19.5146C21.4219 17.8809 22.415 16.8965 22.415 15.0156V4.31934C22.415 2.43848 21.4219 1.4541 19.5146 1.4541H4.47656C2.57812 1.4541 1.58496 2.42969 1.58496 4.31934V15.0156C1.58496 16.8965 2.57812 17.8809 4.47656 17.8809ZM4.59082 16.1318C3.78223 16.1318 3.33398 15.71 3.33398 14.8574V4.47754C3.33398 3.625 3.78223 3.20312 4.59082 3.20312H19.4004C20.209 3.20312 20.6572 3.625 20.6572 4.47754V14.8574C20.6572 15.71 20.209 16.1318 19.4004 16.1318H4.59082Z" fill="#0040DD"/>
<path d="M4.72775 11.2374H9.27295C9.46443 11.2374 9.62765 11.0773 9.62765 10.8796C9.62765 10.685 9.46443 10.5217 9.27295 10.5217H4.72775C4.54255 10.5217 4.37305 10.685 4.37305 10.8796C4.37305 11.0773 4.54255 11.2374 4.72775 11.2374Z" fill="#0040DD"/>
<path d="M8.72775 11.2374H13.2729C13.4644 11.2374 13.6277 11.0773 13.6277 10.8796C13.6277 10.685 13.4644 10.5217 13.2729 10.5217H8.72775C8.54255 10.5217 8.37305 10.685 8.37305 10.8796C8.37305 11.0773 8.54255 11.2374 8.72775 11.2374Z" fill="#0040DD"/>
<path d="M12.6545 11.2374H17.1997C17.3912 11.2374 17.5544 11.0773 17.5544 10.8796C17.5544 10.685 17.3912 10.5217 17.1997 10.5217H12.6545C12.4693 10.5217 12.2998 10.685 12.2998 10.8796C12.2998 11.0773 12.4693 11.2374 12.6545 11.2374Z" fill="#0040DD"/>
<path d="M14.3547 11.2374H18.8999C19.0914 11.2374 19.2546 11.0773 19.2546 10.8796C19.2546 10.685 19.0914 10.5217 18.8999 10.5217H14.3547C14.1695 10.5217 14 10.685 14 10.8796C14 11.0773 14.1695 11.2374 14.3547 11.2374Z" fill="#0040DD"/>
<path d="M4.72775 11.2374H9.27295C9.46443 11.2374 9.62765 11.0773 9.62765 10.8796C9.62765 10.685 9.46443 10.5217 9.27295 10.5217H4.72775C4.54255 10.5217 4.37305 10.685 4.37305 10.8796C4.37305 11.0773 4.54255 11.2374 4.72775 11.2374Z" fill="#0040DD"/>
<path d="M8.72775 11.2374H13.2729C13.4644 11.2374 13.6277 11.0773 13.6277 10.8796C13.6277 10.685 13.4644 10.5217 13.2729 10.5217H8.72775C8.54255 10.5217 8.37305 10.685 8.37305 10.8796C8.37305 11.0773 8.54255 11.2374 8.72775 11.2374Z" fill="#0040DD"/>
<path d="M12.6545 11.2374H17.1997C17.3912 11.2374 17.5544 11.0773 17.5544 10.8796C17.5544 10.685 17.3912 10.5217 17.1997 10.5217H12.6545C12.4693 10.5217 12.2998 10.685 12.2998 10.8796C12.2998 11.0773 12.4693 11.2374 12.6545 11.2374Z" fill="#0040DD"/>
<path d="M14.3547 11.2374H18.8999C19.0914 11.2374 19.2546 11.0773 19.2546 10.8796C19.2546 10.685 19.0914 10.5217 18.8999 10.5217H14.3547C14.1695 10.5217 14 10.685 14 10.8796C14 11.0773 14.1695 11.2374 14.3547 11.2374Z" fill="#0040DD"/>
<path d="M11.1076 5.20787H14.8901C15.0784 5.20787 15.2448 5.04464 15.2448 4.85003C15.2448 4.65227 15.0784 4.49219 14.8901 4.49219H11.1076C10.9224 4.49219 10.7529 4.65227 10.7529 4.85003C10.7529 5.04464 10.9224 5.20787 11.1076 5.20787ZM11.1076 7.27016H14.8901C15.0784 7.27016 15.2448 7.10693 15.2448 6.91232C15.2448 6.7177 15.0784 6.55448 14.8901 6.55448H11.1076C10.9224 6.55448 10.7529 6.7177 10.7529 6.91232C10.7529 7.10693 10.9224 7.27016 11.1076 7.27016Z" fill="#0040DD"/>
<g clip-path="url(#clip0_10_61)">
<path d="M11.1076 5.20787H14.8901C15.0784 5.20787 15.2448 5.04464 15.2448 4.85003C15.2448 4.65227 15.0784 4.49219 14.8901 4.49219H11.1076C10.9224 4.49219 10.7529 4.65227 10.7529 4.85003C10.7529 5.04464 10.9224 5.20787 11.1076 5.20787ZM11.1076 7.27016H14.8901C15.0784 7.27016 15.2448 7.10693 15.2448 6.91232C15.2448 6.7177 15.0784 6.55448 14.8901 6.55448H11.1076C10.9224 6.55448 10.7529 6.7177 10.7529 6.91232C10.7529 7.10693 10.9224 7.27016 11.1076 7.27016Z" fill="#0040DD"/>
<path d="M14.1076 5.20787H17.8901C18.0784 5.20787 18.2448 5.04464 18.2448 4.85003C18.2448 4.65227 18.0784 4.49219 17.8901 4.49219H14.1076C13.9224 4.49219 13.7529 4.65227 13.7529 4.85003C13.7529 5.04464 13.9224 5.20787 14.1076 5.20787ZM14.1076 7.27016H17.8901C18.0784 7.27016 18.2448 7.10693 18.2448 6.91232C18.2448 6.7177 18.0784 6.55448 17.8901 6.55448H14.1076C13.9224 6.55448 13.7529 6.7177 13.7529 6.91232C13.7529 7.10693 13.9224 7.27016 14.1076 7.27016Z" fill="#0040DD"/>
</g>
<path d="M15.1076 5.20787H18.8901C19.0784 5.20787 19.2448 5.04464 19.2448 4.85003C19.2448 4.65227 19.0784 4.49219 18.8901 4.49219H15.1076C14.9224 4.49219 14.7529 4.65227 14.7529 4.85003C14.7529 5.04464 14.9224 5.20787 15.1076 5.20787ZM15.1076 7.27016H18.8901C19.0784 7.27016 19.2448 7.10693 19.2448 6.91232C19.2448 6.7177 19.0784 6.55448 18.8901 6.55448H15.1076C14.9224 6.55448 14.7529 6.7177 14.7529 6.91232C14.7529 7.10693 14.9224 7.27016 15.1076 7.27016Z" fill="#0040DD"/>
<path d="M11.1076 5.20787H14.8901C15.0784 5.20787 15.2448 5.04464 15.2448 4.85003C15.2448 4.65227 15.0784 4.49219 14.8901 4.49219H11.1076C10.9224 4.49219 10.7529 4.65227 10.7529 4.85003C10.7529 5.04464 10.9224 5.20787 11.1076 5.20787ZM11.1076 7.27016H14.8901C15.0784 7.27016 15.2448 7.10693 15.2448 6.91232C15.2448 6.7177 15.0784 6.55448 14.8901 6.55448H11.1076C10.9224 6.55448 10.7529 6.7177 10.7529 6.91232C10.7529 7.10693 10.9224 7.27016 11.1076 7.27016Z" fill="#0040DD"/>
<g clip-path="url(#clip1_10_61)">
<path d="M11.1076 5.20787H14.8901C15.0784 5.20787 15.2448 5.04464 15.2448 4.85003C15.2448 4.65227 15.0784 4.49219 14.8901 4.49219H11.1076C10.9224 4.49219 10.7529 4.65227 10.7529 4.85003C10.7529 5.04464 10.9224 5.20787 11.1076 5.20787ZM11.1076 7.27016H14.8901C15.0784 7.27016 15.2448 7.10693 15.2448 6.91232C15.2448 6.7177 15.0784 6.55448 14.8901 6.55448H11.1076C10.9224 6.55448 10.7529 6.7177 10.7529 6.91232C10.7529 7.10693 10.9224 7.27016 11.1076 7.27016Z" fill="#0040DD"/>
<path d="M14.1076 5.20787H17.8901C18.0784 5.20787 18.2448 5.04464 18.2448 4.85003C18.2448 4.65227 18.0784 4.49219 17.8901 4.49219H14.1076C13.9224 4.49219 13.7529 4.65227 13.7529 4.85003C13.7529 5.04464 13.9224 5.20787 14.1076 5.20787ZM14.1076 7.27016H17.8901C18.0784 7.27016 18.2448 7.10693 18.2448 6.91232C18.2448 6.7177 18.0784 6.55448 17.8901 6.55448H14.1076C13.9224 6.55448 13.7529 6.7177 13.7529 6.91232C13.7529 7.10693 13.9224 7.27016 14.1076 7.27016Z" fill="#0040DD"/>
</g>
<path d="M15.1076 5.20787H18.8901C19.0784 5.20787 19.2448 5.04464 19.2448 4.85003C19.2448 4.65227 19.0784 4.49219 18.8901 4.49219H15.1076C14.9224 4.49219 14.7529 4.65227 14.7529 4.85003C14.7529 5.04464 14.9224 5.20787 15.1076 5.20787ZM15.1076 7.27016H18.8901C19.0784 7.27016 19.2448 7.10693 19.2448 6.91232C19.2448 6.7177 19.0784 6.55448 18.8901 6.55448H15.1076C14.9224 6.55448 14.7529 6.7177 14.7529 6.91232C14.7529 7.10693 14.9224 7.27016 15.1076 7.27016Z" fill="#0040DD"/>
<path d="M3.71777 9.37744H8.2793C9.09668 9.37744 9.51855 8.95557 9.51855 8.14948V3.56536C9.51855 2.75928 9.09668 2.3374 8.2793 2.3374H3.71777C2.90416 2.3374 2.47852 2.75551 2.47852 3.56536V8.14948C2.47852 8.95557 2.90416 9.37744 3.71777 9.37744ZM3.76674 8.62786C3.4202 8.62786 3.2281 8.44706 3.2281 8.08168V3.63316C3.2281 3.26779 3.4202 3.08698 3.76674 3.08698H8.23033C8.5731 3.08698 8.76897 3.26779 8.76897 3.63316V8.08168C8.76897 8.44706 8.5731 8.62786 8.23033 8.62786H3.76674ZM5.01353 7.60707C5.2433 7.60707 5.39021 7.4903 5.44294 7.2643L5.98158 5.10596H6.01172L6.55036 7.2643C6.6031 7.4903 6.75 7.60707 6.97977 7.60707C7.20578 7.60707 7.34891 7.4903 7.40165 7.26053L8.08719 4.51081C8.09849 4.46938 8.10226 4.43548 8.10226 4.39781C8.10226 4.20947 7.97419 4.07764 7.77832 4.07764C7.57868 4.07764 7.48075 4.17557 7.43555 4.40911L6.94587 6.66162H6.91574L6.35073 4.37144C6.30552 4.18687 6.19252 4.0927 5.99665 4.0927C5.80455 4.0927 5.68401 4.18311 5.64258 4.37144L5.07757 6.66162H5.0512L4.56152 4.40911C4.51632 4.17557 4.41839 4.07764 4.21875 4.07764C4.02288 4.07764 3.89481 4.20947 3.89481 4.39781C3.89481 4.43548 3.89858 4.46938 3.90988 4.51081L4.59166 7.26053C4.64439 7.4903 4.78753 7.60707 5.01353 7.60707Z" fill="#0040DD"/>
<path d="M11.1076 5.20787H14.8901C15.0784 5.20787 15.2448 5.04464 15.2448 4.85003C15.2448 4.65227 15.0784 4.49219 14.8901 4.49219H11.1076C10.9224 4.49219 10.7529 4.65227 10.7529 4.85003C10.7529 5.04464 10.9224 5.20787 11.1076 5.20787ZM11.1076 7.27016H14.8901C15.0784 7.27016 15.2448 7.10693 15.2448 6.91232C15.2448 6.7177 15.0784 6.55448 14.8901 6.55448H11.1076C10.9224 6.55448 10.7529 6.7177 10.7529 6.91232C10.7529 7.10693 10.9224 7.27016 11.1076 7.27016Z" fill="#0040DD"/>
<g clip-path="url(#clip2_10_61)">
<path d="M11.1076 5.20787H14.8901C15.0784 5.20787 15.2448 5.04464 15.2448 4.85003C15.2448 4.65227 15.0784 4.49219 14.8901 4.49219H11.1076C10.9224 4.49219 10.7529 4.65227 10.7529 4.85003C10.7529 5.04464 10.9224 5.20787 11.1076 5.20787ZM11.1076 7.27016H14.8901C15.0784 7.27016 15.2448 7.10693 15.2448 6.91232C15.2448 6.7177 15.0784 6.55448 14.8901 6.55448H11.1076C10.9224 6.55448 10.7529 6.7177 10.7529 6.91232C10.7529 7.10693 10.9224 7.27016 11.1076 7.27016Z" fill="#0040DD"/>
<path d="M14.1076 5.20787H17.8901C18.0784 5.20787 18.2448 5.04464 18.2448 4.85003C18.2448 4.65227 18.0784 4.49219 17.8901 4.49219H14.1076C13.9224 4.49219 13.7529 4.65227 13.7529 4.85003C13.7529 5.04464 13.9224 5.20787 14.1076 5.20787ZM14.1076 7.27016H17.8901C18.0784 7.27016 18.2448 7.10693 18.2448 6.91232C18.2448 6.7177 18.0784 6.55448 17.8901 6.55448H14.1076C13.9224 6.55448 13.7529 6.7177 13.7529 6.91232C13.7529 7.10693 13.9224 7.27016 14.1076 7.27016Z" fill="#0040DD"/>
</g>
<path d="M15.1076 5.20787H18.8901C19.0784 5.20787 19.2448 5.04464 19.2448 4.85003C19.2448 4.65227 19.0784 4.49219 18.8901 4.49219H15.1076C14.9224 4.49219 14.7529 4.65227 14.7529 4.85003C14.7529 5.04464 14.9224 5.20787 15.1076 5.20787ZM15.1076 7.27016H18.8901C19.0784 7.27016 19.2448 7.10693 19.2448 6.91232C19.2448 6.7177 19.0784 6.55448 18.8901 6.55448H15.1076C14.9224 6.55448 14.7529 6.7177 14.7529 6.91232C14.7529 7.10693 14.9224 7.27016 15.1076 7.27016Z" fill="#0040DD"/>
<path d="M11.1545 9.23741H15.6997C15.8912 9.23741 16.0544 9.07732 16.0544 8.87957C16.0544 8.68495 15.8912 8.52173 15.6997 8.52173H11.1545C10.9693 8.52173 10.7998 8.68495 10.7998 8.87957C10.7998 9.07732 10.9693 9.23741 11.1545 9.23741Z" fill="#0040DD"/>
<g clip-path="url(#clip3_10_61)">
<path d="M14.3547 9.23741H18.8999C19.0914 9.23741 19.2546 9.07732 19.2546 8.87957C19.2546 8.68495 19.0914 8.52173 18.8999 8.52173H14.3547C14.1695 8.52173 14 8.68495 14 8.87957C14 9.07732 14.1695 9.23741 14.3547 9.23741Z" fill="#0040DD"/>
</g>
<path d="M4.72775 13.2374H9.27295C9.46443 13.2374 9.62765 13.0773 9.62765 12.8796C9.62765 12.685 9.46443 12.5217 9.27295 12.5217H4.72775C4.54255 12.5217 4.37305 12.685 4.37305 12.8796C4.37305 13.0773 4.54255 13.2374 4.72775 13.2374Z" fill="#0040DD"/>
<path d="M8.72775 13.2374H13.2729C13.4644 13.2374 13.6277 13.0773 13.6277 12.8796C13.6277 12.685 13.4644 12.5217 13.2729 12.5217H8.72775C8.54255 12.5217 8.37305 12.685 8.37305 12.8796C8.37305 13.0773 8.54255 13.2374 8.72775 13.2374Z" fill="#0040DD"/>
<path d="M12.6545 13.2374H17.1997C17.3912 13.2374 17.5544 13.0773 17.5544 12.8796C17.5544 12.685 17.3912 12.5217 17.1997 12.5217H12.6545C12.4693 12.5217 12.2998 12.685 12.2998 12.8796C12.2998 13.0773 12.4693 13.2374 12.6545 13.2374Z" fill="#0040DD"/>
<path d="M14.3547 13.2374H18.8999C19.0914 13.2374 19.2546 13.0773 19.2546 12.8796C19.2546 12.685 19.0914 12.5217 18.8999 12.5217H14.3547C14.1695 12.5217 14 12.685 14 12.8796C14 13.0773 14.1695 13.2374 14.3547 13.2374Z" fill="#0040DD"/>
<path d="M4.72775 15.2374H9.27295C9.46443 15.2374 9.62765 15.0773 9.62765 14.8796C9.62765 14.685 9.46443 14.5217 9.27295 14.5217H4.72775C4.54255 14.5217 4.37305 14.685 4.37305 14.8796C4.37305 15.0773 4.54255 15.2374 4.72775 15.2374Z" fill="#0040DD"/>
<path d="M8.72775 15.2374H13.2729C13.4644 15.2374 13.6277 15.0773 13.6277 14.8796C13.6277 14.685 13.4644 14.5217 13.2729 14.5217H8.72775C8.54255 14.5217 8.37305 14.685 8.37305 14.8796C8.37305 15.0773 8.54255 15.2374 8.72775 15.2374Z" fill="#0040DD"/>
<path d="M12.6545 15.2374H17.1997C17.3912 15.2374 17.5544 15.0773 17.5544 14.8796C17.5544 14.685 17.3912 14.5217 17.1997 14.5217H12.6545C12.4693 14.5217 12.2998 14.685 12.2998 14.8796C12.2998 15.0773 12.4693 15.2374 12.6545 15.2374Z" fill="#0040DD"/>
<path d="M14.3547 15.2374H18.8999C19.0914 15.2374 19.2546 15.0773 19.2546 14.8796C19.2546 14.685 19.0914 14.5217 18.8999 14.5217H14.3547C14.1695 14.5217 14 14.685 14 14.8796C14 15.0773 14.1695 15.2374 14.3547 15.2374Z" fill="#0040DD"/>
<defs>
<clipPath id="clip0_10_61">
<rect width="10" height="10" fill="white" transform="translate(8 1)"/>
</clipPath>
<clipPath id="clip1_10_61">
<rect width="10" height="10" fill="white" transform="translate(8 1)"/>
</clipPath>
<clipPath id="clip2_10_61">
<rect width="10" height="10" fill="white" transform="translate(8 1)"/>
</clipPath>
<clipPath id="clip3_10_61">
<rect width="10" height="10" fill="white" transform="translate(11.5 4)"/>
</clipPath>
</defs>
</svg>
